<svg xmlns="http://www.w3.org/2000/svg" viewBox="0 0 144 144" id="contact"><path fill="#528AC8" d="M124.36 129.055h-94V74.441c-1-1.31-3.5-3.598-4.215-3.741-1.072-.214-1.785 1.838-1.785 3.741v53.944c0 1.509.698 3.016 2.053 3.485 1.71 1.493 4.234 2.609 5.921 2.609l90.504-.02c1.903 0 3.435-1.245 4.785-2.604l.757.696" opacity=".3"></path><path fill="none" stroke="#3D6CB4" stroke-linecap="round" stroke-linejoin="round" stroke-miterlimit="10" d="M26.045 70.16a7.988 7.988 0 0 0-2.251 5.556v50.749c0 4.408 3.607 8.015 8.015 8.015h90.442c4.408 0 8.015-3.607 8.015-8.015v-50.75a7.986 7.986 0 0 0-2.251-5.555M91.621 100.892l36.367-30.753M26.069 70.136l36.272 30.674M32.608 63.599l-6.539 6.537M99.073 41.227 77.03 19.186 54.965 41.247M127.988 70.139l-6.495-6.495M77.028 88.9l-51.207 42.878M77.028 88.9l50.96 42.944"></path><path fill="none" stroke="#3D6CB4" stroke-linecap="round" stroke-linejoin="round" stroke-miterlimit="10" d="m121.453 75.666.115-34.439h-88.96v34.439"></path><g transform="rotate(-6.76 59.482 66.906)"><circle cx="59.468" cy="66.892" r="4.479" fill="#528AC8" opacity=".3"></circle><circle cx="59.468" cy="66.892" r="4.479" fill="none" stroke="#3D6CB4" stroke-linecap="round" stroke-linejoin="round" stroke-miterlimit="10"></circle></g><g transform="rotate(-6.76 77.857 66.906)"><circle cx="77.838" cy="66.892" r="4.479" fill="#528AC8" opacity=".3"></circle><circle cx="77.838" cy="66.892" r="4.479" fill="none" stroke="#3D6CB4" stroke-linecap="round" stroke-linejoin="round" stroke-miterlimit="10"></circle></g><g transform="rotate(-6.76 96.231 66.906)"><circle cx="96.209" cy="66.892" r="4.479" fill="#528AC8" opacity=".3"></circle><circle cx="96.209" cy="66.892" r="4.479" fill="none" stroke="#3D6CB4" stroke-linecap="round" stroke-linejoin="round" stroke-miterlimit="10"></circle></g><g fill="none" stroke="#3D6CB4" stroke-linecap="round" stroke-linejoin="round" stroke-miterlimit="10"><path d="M115.727 11.498v11.845M121.649 17.421h-11.844"></path></g><g fill="none" stroke="#3D6CB4" stroke-linecap="round" stroke-linejoin="round" stroke-miterlimit="10"><path d="M8.967 47.564v11.844M3.045 53.486h11.844"></path></g><g fill="none" stroke="#3D6CB4" stroke-linecap="round" stroke-linejoin="round" stroke-miterlimit="10"><path d="M136.994 51.95v7.091M140.539 55.496h-7.091"></path></g></svg>